<svg id="visual" viewBox="0 0 960 330" width="960" height="330" xmlns="http://www.w3.org/2000/svg" xmlns:xlink="http://www.w3.org/1999/xlink" version="1.1"><rect x="0" y="0" width="960" height="330" fill="#ffffff"></rect><path d="M0 67L22.8 65C45.7 63 91.3 59 137 63.2C182.7 67.3 228.3 79.7 274 79.8C319.7 80 365.3 68 411.2 69.2C457 70.3 503 84.7 548.8 89C594.7 93.3 640.3 87.7 686 90.3C731.7 93 777.3 104 823 98.2C868.7 92.3 914.3 69.7 937.2 58.3L960 47L960 0L937.2 0C914.3 0 868.7 0 823 0C777.3 0 731.7 0 686 0C640.3 0 594.7 0 548.8 0C503 0 457 0 411.2 0C365.3 0 319.7 0 274 0C228.3 0 182.7 0 137 0C91.3 0 45.7 0 22.8 0L0 0Z" fill="#ba55d3" stroke-linecap="round" stroke-linejoin="miter"></path></svg>