<svg id="visual" viewBox="0 0 930 600" width="930" height="600" xmlns="http://www.w3.org/2000/svg" xmlns:xlink="http://www.w3.org/1999/xlink" version="1.1"><rect x="0" y="0" width="930" height="600" fill="#FF0066"></rect><g transform="translate(446.34277586669083 287.4019144558749)"><path d="M108.2 -188.9C130.7 -174.4 132.9 -126.2 141 -89.1C149.1 -52 163 -26 176.2 7.6C189.3 41.2 201.6 82.3 197.1 125.6C192.6 168.9 171.3 214.4 135.7 219C100 223.5 50 187.3 9.2 171.4C-31.7 155.5 -63.3 160 -92.2 151.5C-121.1 143 -147.1 121.5 -156.3 94.1C-165.5 66.7 -157.7 33.3 -156.6 0.7C-155.4 -32 -160.9 -64 -153.4 -94.5C-146 -124.9 -125.8 -153.8 -98 -165.3C-70.3 -176.8 -35.2 -170.9 3.8 -177.5C42.8 -184.2 85.7 -203.4 108.2 -188.9" fill="#BB004B"></path></g></svg>