<svg id="visual" viewBox="0 0 960 330" width="960" height="330" xmlns="http://www.w3.org/2000/svg" xmlns:xlink="http://www.w3.org/1999/xlink" version="1.1">
   <g transform="translate(500.58935763624567 168.85126055356776)">
      <path d="M53.7 -88.4C70.2 -72.9 84.7 -59.1 101.1 -40.9C117.6 -22.8 136 -0.3 133.8 19.7C131.7 39.7 108.9 57.2 89.4 74.6C69.8 92 53.5 109.3 33.9 114.8C14.3 120.3 -8.6 113.9 -27.9 104.1C-47.2 94.3 -62.9 81.2 -91.7 68.2C-120.4 55.2 -162.3 42.3 -172.5 20.3C-182.8 -1.8 -161.4 -32.9 -138.7 -55.3C-115.9 -77.7 -91.7 -91.4 -68.4 -103.8C-45.1 -116.1 -22.5 -127.1 -2 -124C18.6 -120.9 37.2 -103.8 53.7 -88.4" fill="#BB004B"></path>
   </g>
   <g transform="translate(458.5808308747966 127.62985615397935)">
      <path d="M152.7 104.3C114.9 153.7 -56 142.3 -103.6 87.3C-151.3 32.3 -75.6 -66.3 9.8 -60.7C95.3 -55 190.5 55 152.7 104.3" fill="#BB004B"></path>
   </g>
</svg>