<svg id="visual" viewBox="0 0 960 300" width="960" height="300" xmlns="http://www.w3.org/2000/svg" xmlns:xlink="http://www.w3.org/1999/xlink" version="1.1"><rect x="0" y="0" width="960" height="300" fill="#0091ff"></rect><path d="M0 213L22.8 211.3C45.7 209.7 91.3 206.3 137 202C182.7 197.7 228.3 192.3 274 189.3C319.7 186.3 365.3 185.7 411.2 189.8C457 194 503 203 548.8 204.3C594.7 205.7 640.3 199.3 686 193.5C731.7 187.7 777.3 182.3 823 179.8C868.7 177.3 914.3 177.7 937.2 177.8L960 178L960 301L937.2 301C914.3 301 868.7 301 823 301C777.3 301 731.7 301 686 301C640.3 301 594.7 301 548.8 301C503 301 457 301 411.2 301C365.3 301 319.7 301 274 301C228.3 301 182.7 301 137 301C91.3 301 45.7 301 22.8 301L0 301Z" fill="#fad269"></path><path d="M0 197L22.8 200.7C45.7 204.3 91.3 211.7 137 214.2C182.7 216.7 228.3 214.3 274 216.2C319.7 218 365.3 224 411.2 223.3C457 222.7 503 215.3 548.8 215.5C594.7 215.7 640.3 223.3 686 226.7C731.7 230 777.3 229 823 229.2C868.7 229.3 914.3 230.7 937.2 231.3L960 232L960 301L937.2 301C914.3 301 868.7 301 823 301C777.3 301 731.7 301 686 301C640.3 301 594.7 301 548.8 301C503 301 457 301 411.2 301C365.3 301 319.7 301 274 301C228.3 301 182.7 301 137 301C91.3 301 45.7 301 22.8 301L0 301Z" fill="#c4c053"></path><path d="M0 241L22.8 238C45.7 235 91.3 229 137 229.2C182.7 229.3 228.3 235.7 274 240.8C319.7 246 365.3 250 411.2 246C457 242 503 230 548.8 228C594.7 226 640.3 234 686 234.2C731.7 234.3 777.3 226.7 823 228.7C868.7 230.7 914.3 242.3 937.2 248.2L960 254L960 301L937.2 301C914.3 301 868.7 301 823 301C777.3 301 731.7 301 686 301C640.3 301 594.7 301 548.8 301C503 301 457 301 411.2 301C365.3 301 319.7 301 274 301C228.3 301 182.7 301 137 301C91.3 301 45.7 301 22.8 301L0 301Z" fill="#8eac46"></path><path d="M0 265L22.8 265.2C45.7 265.3 91.3 265.7 137 261.5C182.7 257.3 228.3 248.7 274 248.8C319.7 249 365.3 258 411.2 258.7C457 259.3 503 251.7 548.8 247.7C594.7 243.7 640.3 243.3 686 245.7C731.7 248 777.3 253 823 256.2C868.7 259.3 914.3 260.7 937.2 261.3L960 262L960 301L937.2 301C914.3 301 868.7 301 823 301C777.3 301 731.7 301 686 301C640.3 301 594.7 301 548.8 301C503 301 457 301 411.2 301C365.3 301 319.7 301 274 301C228.3 301 182.7 301 137 301C91.3 301 45.7 301 22.8 301L0 301Z" fill="#589740"></path><path d="M0 279L22.8 279.8C45.7 280.7 91.3 282.3 137 282.2C182.7 282 228.3 280 274 278.2C319.7 276.3 365.3 274.7 411.2 274.8C457 275 503 277 548.8 275.7C594.7 274.3 640.3 269.7 686 268.3C731.7 267 777.3 269 823 269.2C868.7 269.3 914.3 267.7 937.2 266.8L960 266L960 301L937.2 301C914.3 301 868.7 301 823 301C777.3 301 731.7 301 686 301C640.3 301 594.7 301 548.8 301C503 301 457 301 411.2 301C365.3 301 319.7 301 274 301C228.3 301 182.7 301 137 301C91.3 301 45.7 301 22.8 301L0 301Z" fill="#0a803f"></path></svg>