<?xml version="1.0" standalone="no"?>
<!DOCTYPE svg PUBLIC "-//W3C//DTD SVG 20010904//EN"
 "http://www.w3.org/TR/2001/REC-SVG-20010904/DTD/svg10.dtd">
<svg version="1.0" xmlns="http://www.w3.org/2000/svg"
 width="1920.000000pt" height="1212.000000pt" viewBox="0 0 1920.000000 1212.000000"
 preserveAspectRatio="xMidYMid meet">
<metadata>
Created by potrace 1.16, written by Peter Selinger 2001-2019
</metadata>
<g transform="translate(0.000000,1212.000000) scale(0.100000,-0.100000)"
fill="#000000" stroke="none">
<path d="M0 9970 l0 -2150 9600 0 9600 0 0 2150 0 2150 -9600 0 -9600 0 0
-2150z"/>
<path d="M15740 7779 c-85 -4 -238 -9 -340 -13 -1113 -36 -1666 -58 -1675 -66
-7 -6 -16 -6 -20 -2 -5 4 -5 1 -1 -6 9 -16 -52 -95 -66 -86 -7 4 -8 2 -4 -4 8
-13 -142 -205 -154 -197 -4 3 -7 -1 -6 -8 0 -7 -264 -347 -589 -755 -324 -409
-591 -746 -593 -751 -1 -4 79 -15 178 -25 l180 -19 0 -618 0 -619 -6325 0
-6325 0 0 -1135 0 -1135 9600 0 9600 0 0 1135 0 1135 -1105 0 -1105 0 0 560 0
560 58 -5 c31 -2 134 -7 227 -10 94 -3 205 -8 248 -11 50 -3 78 -1 75 5 -1 6
-343 425 -758 933 -415 508 -754 929 -753 936 0 7 -2 11 -5 8 -7 -7 -42 23
-42 36 0 5 5 6 12 2 7 -5 8 -3 4 5 -5 7 -11 10 -14 7 -7 -7 -52 34 -52 47 0 5
8 3 18 -4 14 -11 13 -10 -2 9 -21 24 -31 29 -20 10 4 -7 -2 -4 -14 6 -26 23
-30 44 -4 25 14 -11 13 -9 -2 9 -11 12 -22 20 -24 17 -3 -3 -15 3 -26 13 -19
16 -36 17 -176 11z m468 -1449 l2 -300 -305 0 -305 0 0 303 0 302 302 -2 303
-2 3 -301z m612 -1550 l0 -890 -888 0 c-489 0 -891 2 -893 4 -2 2 -3 403 -1
890 l2 886 890 0 890 0 0 -890z"/>
<path d="M15660 6330 l0 -240 243 0 242 0 0 240 0 240 -242 0 -243 0 0 -240z"/>
<path d="M15538 5218 l392 -393 392 393 393 392 -785 0 -785 0 393 -392z"/>
<path d="M15100 4780 l0 -785 392 393 393 392 -393 392 -392 393 0 -785z"/>
<path d="M16360 5165 l-385 -385 388 -388 387 -387 0 773 c0 424 -1 772 -3
772 -1 0 -175 -173 -387 -385z"/>
<path d="M15537 4343 l-387 -388 775 0 c426 0 775 2 775 5 0 7 -764 770 -770
770 -3 0 -179 -174 -393 -387z"/>
</g>
</svg>
