<svg id="visual" viewBox="0 0 960 300" width="960" height="300" xmlns="http://www.w3.org/2000/svg" xmlns:xlink="http://www.w3.org/1999/xlink" version="1.1"><path d="M0 244L22.8 239C45.7 234 91.3 224 137 225.8C182.7 227.7 228.3 241.3 274 242.3C319.7 243.3 365.3 231.7 411.2 232.5C457 233.3 503 246.7 548.8 241.8C594.7 237 640.3 214 686 210.7C731.7 207.3 777.3 223.7 823 233C868.7 242.3 914.3 244.7 937.2 245.8L960 247L960 301L937.2 301C914.3 301 868.7 301 823 301C777.3 301 731.7 301 686 301C640.3 301 594.7 301 548.8 301C503 301 457 301 411.2 301C365.3 301 319.7 301 274 301C228.3 301 182.7 301 137 301C91.3 301 45.7 301 22.8 301L0 301Z" fill="#0091ff" stroke-linecap="round" stroke-linejoin="miter"></path></svg>